HIERARCHY
ROOT Hips
{
	OFFSET 0.000000 0.000000 0.000000
	CHANNELS 6 Xposition Yposition Zposition Zrotation Yrotation Xrotation 
	JOINT LHipJoint
	{
		OFFSET 0.000000 0.000000 0.000000
		CHANNELS 3 Zrotation Yrotation Xrotation
		JOINT LeftUpLeg
		{
			OFFSET 8.178360 -10.767780 5.035740
			CHANNELS 3 Zrotation Yrotation Xrotation
			JOINT LeftLeg
			{
				OFFSET 14.688660 -40.356780 0.000000
				CHANNELS 3 Zrotation Yrotation Xrotation
				JOINT LeftFoot
				{
					OFFSET 15.373200 -42.237540 0.000000
					CHANNELS 3 Zrotation Yrotation Xrotation
					JOINT LeftToeBase
					{
						OFFSET 0.945840 -2.598660 13.935300
						CHANNELS 3 Zrotation Yrotation Xrotation
						End Site
						{
							OFFSET 0.000000 0.000000 0.000000
						}
					}
				}
			}
		}
	}
	JOINT RHipJoint
	{
		OFFSET 0.000000 0.000000 0.000000
		CHANNELS 3 Zrotation Yrotation Xrotation
		JOINT RightUpLeg
		{
			OFFSET -7.833120 -10.767780 5.035740
			CHANNELS 3 Zrotation Yrotation Xrotation
			JOINT RightLeg
			{
				OFFSET -15.255180 -41.913300 0.000000
				CHANNELS 3 Zrotation Yrotation Xrotation
				JOINT RightFoot
				{
					OFFSET -15.409560 -42.337380 0.000000
					CHANNELS 3 Zrotation Yrotation Xrotation
					JOINT RightToeBase
					{
						OFFSET -0.988380 -2.715540 14.178900
						CHANNELS 3 Zrotation Yrotation Xrotation
						End Site
						{
							OFFSET 0.000000 0.000000 0.000000
						}
					}
				}
			}
		}
	}
	JOINT LowerBack
	{
		OFFSET 0.000000 0.000000 0.000000
		CHANNELS 3 Zrotation Yrotation Xrotation
		JOINT Spine
		{
			OFFSET 0.169620 12.213540 -1.160280
			CHANNELS 3 Zrotation Yrotation Xrotation
			JOINT Spine1
			{
				OFFSET 0.340320 12.293100 -0.256500
				CHANNELS 3 Zrotation Yrotation Xrotation
				JOINT Neck
				{
					OFFSET 0.000000 0.000000 0.000000
					CHANNELS 3 Zrotation Yrotation Xrotation
					JOINT Neck1
					{
						OFFSET -0.325020 10.477440 1.032120
						CHANNELS 3 Zrotation Yrotation Xrotation
						JOINT Head
						{
							OFFSET 0.624420 10.568160 -0.743820
							CHANNELS 3 Zrotation Yrotation Xrotation
							End Site
							{
								OFFSET 0.000000 0.000000 0.000000
							}
						}
					}
				}
				JOINT LeftShoulder
				{
					OFFSET 0.000000 0.000000 0.000000
					CHANNELS 3 Zrotation Yrotation Xrotation
					JOINT LeftArm
					{
						OFFSET 20.174460 7.205340 -1.867260
						CHANNELS 3 Zrotation Yrotation Xrotation
						JOINT LeftForeArm
						{
							OFFSET 29.898000 -0.000000 -0.000000
							CHANNELS 3 Zrotation Yrotation Xrotation
							JOINT LeftHand
							{
								OFFSET 20.901360 -0.000000 -0.000000
								CHANNELS 3 Zrotation Yrotation Xrotation
								JOINT LeftFingerBase
								{
									OFFSET 0.000000 0.000000 0.000000
									CHANNELS 3 Zrotation Yrotation Xrotation
									JOINT LeftHandIndex1
									{
										OFFSET 4.291560 -0.000000 -0.000000
										CHANNELS 3 Zrotation Yrotation Xrotation
										End Site
										{
											OFFSET 0.000000 0.000000 0.000000
										}
									}
								}
								JOINT LThumb
								{
									OFFSET 0.000000 0.000000 0.000000
									CHANNELS 3 Zrotation Yrotation Xrotation
									End Site
									{
										OFFSET 0.000000 0.000000 0.000000
									}
								}
							}
						}
					}
				}
				JOINT RightShoulder
				{
					OFFSET 0.000000 0.000000 0.000000
					CHANNELS 3 Zrotation Yrotation Xrotation
					JOINT RightArm
					{
						OFFSET -18.819600 8.244300 -2.427900
						CHANNELS 3 Zrotation Yrotation Xrotation
						JOINT RightForeArm
						{
							OFFSET -31.451400 -0.000000 -0.000000
							CHANNELS 3 Zrotation Yrotation Xrotation
							JOINT RightHand
							{
								OFFSET -20.665020 -0.000000 -0.000000
								CHANNELS 3 Zrotation Yrotation Xrotation
								JOINT RightFingerBase
								{
									OFFSET 0.000000 0.000000 0.000000
									CHANNELS 3 Zrotation Yrotation Xrotation
									JOINT RightHandIndex1
									{
										OFFSET -3.735180 -0.000000 -0.000000
										CHANNELS 3 Zrotation Yrotation Xrotation
										End Site
										{
											OFFSET 0.000000 0.000000 0.000000
										}
									}
								}
								JOINT RThumb
								{
									OFFSET 0.000000 0.000000 0.000000
									CHANNELS 3 Zrotation Yrotation Xrotation
									End Site
									{
										OFFSET 0.000000 0.000000 0.000000
									}
								}
							}
						}
					}
				}
			}
		}
	}
}
MOTION
Frames:	7
Frame Time:	0.0333333
41.115240 106.129434 -8.322876 9.933601 -47.799833 -6.035648 -3.223222 1.948993 3.604731 -26.201314 0.968007 2.693250 -0.935220 3.002535 10.910188 0.787335 -8.915360 -2.617384 0.026700 -1.054900 -2.900000 -0.033630 -0.981662 0.364412 10.847405 6.555921 -32.373729 -3.025637 -11.491490 33.634763 0.674644 -5.185083 0.208279 -0.006400 -0.515100 1.415500 -5.970015 -0.215139 9.037840 0.616925 -0.869242 1.910345 2.118949 -0.524772 -3.680152 -10.404371 -3.847706 -16.123922 5.469815 -3.461547 15.384499 3.808600 -2.086400 11.613400 -6.014368 -1.186711 -1.470423 -78.658704 -0.940314 27.184489 19.922423 -27.933000 -6.048687 -0.869284 -2.221220 5.827644 16.823488 23.026714 7.675200 -7.125000 0.000000 0.000000 -13.206300 55.889400 -3.572800 4.974996 1.431467 -1.062690 82.840194 -1.299431 17.376717 -20.654524 29.774216 -5.885763 0.210634 -0.113083 7.158123 -11.248182 9.173311 -1.869000 7.125000 0.000000 0.000000 11.061900 -20.617100 6.580200 
38.291952 105.842064 -6.089322 10.484198 -47.251397 -5.988658 -3.056794 2.224663 3.825229 -26.495368 1.429535 7.917290 -1.290374 0.554100 4.461058 0.523043 -7.900382 -0.327216 0.072800 -1.740200 -4.788300 0.052444 -1.017478 0.268921 9.920019 7.878905 -31.519494 -1.160500 -8.426390 23.665576 0.802584 -5.733408 -1.866107 -0.016400 -0.827200 2.273400 -6.552556 -0.519352 8.185357 0.607520 -1.268994 1.787193 2.419800 -0.762072 -3.421797 -10.541373 -3.872090 -15.858415 5.702550 -3.498268 15.288773 3.916500 -2.089300 11.523400 -6.018206 -1.185597 -1.465841 -78.401820 -0.749922 27.723469 19.855258 -27.882361 -6.025168 -0.907586 -2.143617 6.578937 17.172173 22.225225 7.596000 -7.125000 0.000000 0.000000 -12.407700 55.102300 -3.113200 4.978802 1.387463 -1.082562 83.185451 -2.022986 16.608827 -20.284427 29.333142 -5.688771 0.200106 -0.122677 7.634402 -10.992733 9.338266 -1.859000 7.125000 0.000000 0.000000 11.240400 -20.453700 6.732800 
35.412276 105.626088 -3.872568 11.183646 -46.554797 -5.981553 -2.924898 2.346176 3.924677 -26.919595 1.113045 11.009373 -1.340902 -0.309111 2.231783 0.443450 -7.570189 0.132512 0.145400 -2.457000 -6.770400 0.113513 -1.043071 0.195648 7.556220 11.906957 -30.593190 -0.404322 -6.738783 18.615928 1.130044 -7.409802 -6.486265 -0.150900 2.502900 -6.897700 -7.337919 -0.792668 7.338050 0.615524 -1.650376 1.631850 2.879485 -0.971335 -3.166018 -10.552671 -3.930472 -16.052577 5.686321 -3.558870 15.385231 3.898100 -2.116500 11.604400 -6.031583 -1.191766 -1.467701 -78.390345 -0.701841 27.907324 19.685951 -27.689125 -5.934470 -0.886122 -2.135272 7.236820 16.554909 22.195494 7.290200 -7.125000 0.000000 0.000000 -13.069400 54.941200 -3.231700 5.001279 1.342196 -1.109999 83.450050 -2.724941 15.796876 -19.679738 28.580252 -5.364244 0.202505 -0.116901 7.993140 -11.049069 8.941685 -1.789600 7.125000 0.000000 0.000000 11.219800 -20.854700 6.616400 
32.714970 105.399312 -1.751808 11.604264 -46.811020 -6.049422 -2.815244 2.414604 3.991268 -26.935465 1.380130 12.705157 -1.298378 -0.335738 2.241259 0.439149 -8.093463 0.510310 0.185000 -2.769900 -7.638700 0.012665 -1.038987 0.194269 9.593616 8.233919 -32.672427 -0.503599 -6.966142 19.211248 0.534690 -4.482085 -3.008389 -0.091100 1.946500 -5.357800 -7.573271 -0.656791 7.428805 0.567135 -1.520902 1.420678 2.910813 -0.887722 -3.614106 -10.419232 -4.055355 -16.162764 5.569117 -3.748667 15.331673 3.798400 -2.197800 11.637600 -6.054017 -1.209138 -1.476502 -78.316492 -0.647589 28.450544 19.399590 -27.330474 -5.766194 -0.928828 -2.154186 7.411571 16.829853 22.609128 7.550800 -7.125000 0.000000 0.000000 -12.966800 55.435200 -3.362500 5.029842 1.337100 -1.136565 83.969311 -3.342538 14.077653 -18.778857 27.432745 -4.894718 0.185771 -0.134176 8.767842 -10.692702 9.086827 -1.760400 7.125000 0.000000 0.000000 11.473500 -20.707100 6.811100 
29.743500 105.103548 0.571734 11.581706 -47.049391 -6.723071 -2.635102 2.563488 4.075625 -26.594195 2.082812 15.489908 -1.231957 -0.372576 2.257098 0.392505 -8.391173 1.448735 0.539000 -4.703900 -13.066000 -0.072403 -1.107788 0.204165 11.030389 7.348002 -32.152486 -0.863448 -7.830688 21.821137 0.276044 -3.164309 -1.971834 -0.065100 1.646500 -4.529700 -7.542856 -0.638213 7.978371 0.639391 -1.538429 1.487009 2.971170 -0.895481 -3.845043 -10.164005 -3.858679 -16.683866 5.223820 -3.479927 15.558830 3.649800 -2.094100 11.805100 -6.100918 -1.227406 -1.484312 -78.916311 -0.349035 27.043386 18.921173 -26.706803 -5.469313 -0.993371 -2.141176 8.260414 17.096716 22.645092 7.698100 -7.125000 0.000000 0.000000 -12.679200 55.534100 -3.316800 5.093503 1.283743 -1.164339 84.165111 -3.934719 13.588126 -17.784760 26.098849 -4.386293 0.214502 -0.126823 8.010201 -11.320081 8.550118 -1.758600 7.125000 0.000000 0.000000 11.037500 -21.227200 6.410000 
26.225490 105.308724 3.018864 10.778859 -45.949946 -6.396166 -2.419609 2.720395 4.132242 -25.659009 1.207744 18.431724 -1.199552 -0.403619 2.208136 0.288817 -8.311941 4.897459 0.439700 -4.254800 -11.794600 -0.130824 -1.219405 0.253346 11.320649 8.639951 -29.905238 -1.122562 -8.270500 23.356216 -0.342770 0.257940 1.700166 -0.047800 1.410400 -3.878800 -7.537409 -1.066009 7.572755 0.901679 -2.064709 1.493005 3.456525 -1.180059 -3.598804 -10.364671 -3.792227 -16.421823 5.200882 -3.342977 15.459256 3.684000 -2.056800 11.685700 -6.161360 -1.174935 -1.503107 -79.844407 0.580081 25.597679 18.424332 -26.077567 -5.174869 -1.011545 -2.182864 7.428126 17.333891 22.708290 7.854400 -7.125000 0.000000 0.000000 -12.433700 55.683700 -3.296500 5.192706 1.204435 -1.162460 84.418708 -4.042776 10.069492 -16.041609 23.716057 -3.553728 0.225602 -0.135279 10.950175 -11.822567 7.541321 -1.625500 7.125000 0.000000 0.000000 10.720200 -22.225400 5.971300 
22.619292 106.080834 5.607576 7.506185 -45.340473 -3.617605 -2.207053 2.909114 4.201863 -22.857897 0.154925 20.102141 -1.197959 -0.402508 2.155176 0.291968 -7.381591 10.883583 1.302200 -7.229200 -20.396300 -0.161940 -1.369863 0.289737 13.828911 9.759962 -27.983706 -1.162605 -8.240917 23.480495 -0.391352 0.101409 7.088106 -0.009500 0.630100 -1.731500 -5.380178 -1.340045 6.554735 1.421466 -2.144418 1.227250 3.081328 -1.241041 -3.577333 -10.205762 -3.798481 -16.490263 4.912735 -3.435137 16.320123 3.538900 -2.146500 12.040600 -6.244943 -1.154229 -1.512380 -80.876939 1.343706 23.850169 17.229461 -24.477339 -4.499109 -1.046993 -2.174998 8.994977 16.475198 22.687747 7.447800 -7.125000 0.000000 0.000000 -13.342200 55.501400 -3.484000 5.293744 1.108537 -1.207546 84.951061 -5.010643 6.244380 -14.892947 22.121099 -3.054213 0.192644 -0.172147 12.634843 -11.136611 8.016211 -1.629400 7.125000 0.000000 0.000000 11.200200 -21.736600 6.376000 
